<svg width="1521" height="256" viewBox="0 0 1521 256" fill="none" xmlns="http://www.w3.org/2000/svg">
    <g clip-path="url(#clip0_206_7)">
        <path
            d="M8.50119 36.6567H55.8298L86.2554 144.316L115.641 36.6567H148.407L175.972 144.576L206.137 36.6567H253.466L203.277 218.43H160.889L130.984 112.851L101.338 218.43H58.6903L8.50119 36.6567ZM325.497 222.331C301.053 222.331 281.809 216.61 267.766 205.167C253.897 193.725 246.963 177.516 246.963 156.539C246.963 135.908 253.117 119.612 265.426 107.65C277.908 95.6875 295.852 89.7064 319.256 89.7064C334.165 89.7064 346.908 92.5669 357.483 98.288C368.231 103.836 376.293 111.55 381.667 121.432C387.215 131.141 389.989 142.149 389.989 154.458V171.361H290.391C292.124 178.296 296.458 183.323 303.393 186.444C310.328 189.565 319.776 191.125 331.738 191.125C339.886 191.125 348.208 190.431 356.703 189.045C365.371 187.658 372.826 185.751 379.067 183.323V213.489C372.652 216.089 364.591 218.17 354.882 219.73C345.347 221.464 335.552 222.331 325.497 222.331ZM346.821 142.756C346.127 135.995 343.354 130.707 338.499 126.893C333.645 123.079 326.971 121.172 318.476 121.172C310.154 121.172 303.566 123.166 298.712 127.153C293.858 130.967 291.084 136.168 290.391 142.756H346.821ZM496.507 222.331C478.65 222.331 463.914 216.87 452.299 205.948V218.43H408.091V26.2548H453.859V103.749C458.886 99.4148 465.128 96.0342 472.582 93.6071C480.21 91.0066 488.185 89.7064 496.507 89.7064C509.682 89.7064 521.211 92.4802 531.093 98.0279C541.148 103.576 548.95 111.464 554.497 121.692C560.045 131.747 562.819 143.276 562.819 156.279C562.819 169.454 560.045 181.07 554.497 191.125C548.95 201.007 541.148 208.721 531.093 214.269C521.038 219.643 509.509 222.331 496.507 222.331ZM484.544 186.964C493.906 186.964 501.448 184.277 507.169 178.903C512.89 173.355 515.75 165.814 515.75 156.279C515.75 146.743 512.89 139.202 507.169 133.654C501.448 128.107 493.906 125.333 484.544 125.333C477.61 125.333 471.369 127.153 465.821 130.794C460.273 134.261 456.286 139.029 453.859 145.097V167.201C456.286 173.268 460.273 178.123 465.821 181.763C471.369 185.231 477.61 186.964 484.544 186.964ZM635.642 222.331C624.2 222.331 613.191 221.377 602.616 219.47C592.214 217.563 583.286 214.703 575.831 210.889V174.482C593.341 182.457 611.024 186.444 628.881 186.444C652.979 186.444 665.028 179.249 665.028 164.86C665.028 157.579 662.08 152.378 656.186 149.257C650.292 145.963 641.103 144.316 628.621 144.316H603.396V109.21H627.581C637.809 109.21 645.697 107.476 651.245 104.009C656.966 100.542 659.827 95.4275 659.827 88.6662C659.827 82.2517 657.313 77.3108 652.285 73.8435C647.258 70.3762 640.15 68.6426 630.961 68.6426C612.065 68.6426 594.901 73.4968 579.472 83.2052V46.0184C587.273 41.8577 596.202 38.6504 606.257 36.3967C616.312 33.9696 626.714 32.756 637.463 32.756C661.214 32.756 678.723 37.5235 689.992 47.0586C701.261 56.4203 706.895 69.6828 706.895 86.8459C706.895 94.6473 704.988 102.015 701.174 108.95C697.533 115.885 692.072 121.779 684.791 126.633C702.994 134.608 712.096 148.13 712.096 167.201C712.096 184.71 706.115 198.32 694.153 208.028C682.191 217.563 662.687 222.331 635.642 222.331ZM912.609 222.331C892.845 222.331 875.422 218.517 860.339 210.889C845.43 203.26 833.901 192.338 825.753 178.123C817.605 163.733 813.531 146.917 813.531 127.673C813.531 108.43 817.605 91.7001 825.753 77.4842C833.901 63.0949 845.43 52.0862 860.339 44.4581C875.422 36.6567 892.845 32.756 912.609 32.756C925.785 32.756 937.4 34.0562 947.455 36.6567C957.684 39.0838 967.132 43.0712 975.801 48.6189V92.3069C968.172 86.2391 959.504 81.905 949.796 79.3045C940.261 76.5307 929.252 75.1438 916.77 75.1438C906.021 75.1438 896.399 77.3108 887.904 81.6449C879.583 85.8057 872.995 91.8735 868.141 99.8483C863.287 107.823 860.86 117.098 860.86 127.673C860.86 144.143 865.627 157.145 875.162 166.68C884.871 176.216 897.96 180.983 914.429 180.983C923.618 180.983 931.332 179.423 937.574 176.302V147.177H909.748V114.931H981.262V205.428C962.711 216.696 939.827 222.331 912.609 222.331ZM1223.37 222.331C1207.76 222.331 1195.11 218.603 1185.4 211.149C1175.86 203.521 1171.1 192.945 1171.1 179.423C1171.1 165.38 1175.69 154.632 1184.88 147.177C1194.24 139.549 1207.59 135.735 1224.93 135.735C1231.69 135.735 1238.45 136.515 1245.21 138.075C1251.97 139.462 1257.78 141.369 1262.63 143.796V141.196C1262.63 127.847 1251.71 121.172 1229.87 121.172C1214.61 121.172 1200.65 124.119 1188 130.014V98.548C1193.55 95.9475 1200.83 93.8672 1209.84 92.3069C1218.86 90.5732 1228.22 89.7064 1237.93 89.7064C1261.16 89.7064 1278.67 94.3873 1290.46 103.749C1302.42 112.937 1308.4 125.853 1308.4 142.496V218.43H1265.49V207.768C1260.81 212.275 1254.92 215.829 1247.81 218.43C1240.7 221.03 1232.55 222.331 1223.37 222.331ZM1236.89 194.245C1242.26 194.245 1247.29 193.205 1251.97 191.125C1256.65 188.871 1260.21 186.011 1262.63 182.543V171.621C1255.18 166.594 1246.68 164.08 1237.15 164.08C1231.08 164.08 1226.4 165.38 1223.11 167.981C1219.81 170.581 1218.16 174.395 1218.16 179.423C1218.16 184.104 1219.73 187.744 1222.85 190.345C1226.14 192.945 1230.82 194.245 1236.89 194.245ZM1330.45 26.2548H1376.21V218.43H1330.45V26.2548ZM1453.35 222.331C1443.3 222.331 1432.81 221.29 1421.89 219.21C1410.96 217.303 1402.3 214.529 1395.88 210.889V177.342C1402.99 181.503 1411.48 184.97 1421.37 187.744C1431.42 190.345 1440.61 191.645 1448.93 191.645C1455 191.645 1459.42 191.212 1462.19 190.345C1464.97 189.478 1466.35 187.744 1466.35 185.144C1466.35 183.063 1465.4 181.416 1463.49 180.203C1461.76 178.816 1458.47 177.429 1453.61 176.042C1448.93 174.482 1443.47 172.835 1437.23 171.101C1426.65 167.981 1418.33 164.773 1412.26 161.48C1406.2 158.186 1401.69 154.025 1398.74 148.997C1395.79 143.97 1394.32 137.642 1394.32 130.014C1394.32 116.491 1399.61 106.436 1410.18 99.8483C1420.93 93.087 1435.58 89.7064 1454.13 89.7064C1463.15 89.7064 1472.59 90.6599 1482.48 92.5669C1492.53 94.4739 1500.07 96.9877 1505.1 100.108V133.134C1499.9 129.667 1492.97 126.807 1484.3 124.553C1475.8 122.299 1467.83 121.172 1460.37 121.172C1454.48 121.172 1449.88 121.779 1446.59 122.992C1443.3 124.033 1441.65 125.94 1441.65 128.714C1441.65 131.314 1443.3 133.308 1446.59 134.695C1449.88 136.082 1455.78 137.815 1464.27 139.896C1469.82 141.282 1472.16 141.889 1471.29 141.716C1482.39 144.663 1490.97 147.957 1497.04 151.598C1503.11 155.238 1507.35 159.572 1509.78 164.6C1512.38 169.454 1513.68 175.695 1513.68 183.323C1513.68 195.286 1508.48 204.821 1498.08 211.929C1487.85 218.863 1472.94 222.331 1453.35 222.331Z"
            fill="black" />
        <path fill-rule="evenodd" clip-rule="evenodd"
            d="M1035.66 214.592C1047.35 220.197 1060.97 223 1076.5 223C1092.04 223 1105.65 220.197 1117.35 214.592C1129.04 208.811 1138.03 200.929 1144.31 190.945C1150.77 180.785 1154 169.137 1154 156C1154 142.863 1150.77 131.302 1144.31 121.318C1142.27 118.008 1139.93 114.94 1137.31 112.114L1106.32 149C1106.69 151.195 1106.87 153.528 1106.87 156C1106.87 165.634 1104.08 173.253 1098.49 178.859C1093.08 184.289 1085.75 187.004 1076.5 187.004C1067.25 187.004 1059.83 184.289 1054.25 178.859C1048.83 173.253 1046.13 165.634 1046.13 156C1046.13 146.366 1048.83 138.834 1054.25 133.404C1059.83 127.799 1067.25 124.996 1076.5 124.996C1078.02 124.996 1079.52 125.093 1081 125.285L1107.5 93.6364C1098.19 90.5455 1087.86 89 1076.5 89C1060.97 89 1047.35 91.8902 1035.66 97.6706C1023.96 103.276 1014.88 111.158 1008.43 121.318C1002.14 131.302 999 142.863 999 156C999 169.137 1002.14 180.785 1008.43 190.945C1014.88 200.929 1023.96 208.811 1035.66 214.592ZM1081.53 125.358C1081.53 125.358 1081.53 125.358 1081.53 125.358Z"
            fill="black" />
        <path
            d="M1121.72 93.0076L1120.37 73.6185C1120.23 71.6302 1120.89 69.6683 1122.19 68.1642L1143.11 44.0982C1144.7 42.277 1147.06 41.3272 1149.47 41.5475C1151.87 41.7679 1154.02 43.1297 1155.25 45.2083L1162.52 57.5239L1175.73 63.0042C1177.96 63.9303 1179.61 65.8747 1180.17 68.2276C1180.72 70.5805 1180.11 73.0553 1178.52 74.8789L1157.6 98.9449C1156.29 100.449 1154.44 101.373 1152.45 101.512L1133.07 102.868L1079.91 165.273C1078.13 167.246 1075.45 168.135 1072.84 167.613C1070.24 167.092 1068.11 165.236 1067.23 162.732C1066.35 160.228 1066.86 157.445 1068.56 155.412L1121.72 93.0076ZM1135.58 75.6741L1136.41 87.5659L1148.3 86.7344L1160.34 72.8885L1154.44 70.4377C1152.94 69.8121 1151.69 68.718 1150.86 67.32L1147.62 61.8281L1135.58 75.6741Z"
            fill="#FF4400" />
    </g>
    <defs>
        <clipPath id="clip0_206_7">
            <rect width="1521" height="256" fill="white" />
        </clipPath>
    </defs>
</svg>