<svg width="1536" height="256" viewBox="0 0 1536 256" fill="none"
    xmlns="http://www.w3.org/2000/svg">
    <g clip-path="url(#clip0_5_6)">
        <path d="M1099.09 126.096V106.659C1099.09 104.666 1099.88 102.755 1101.29 101.345L1123.83 78.7973C1125.54 77.0911 1127.97 76.3084 1130.35 76.696C1132.73 77.0835 1134.79 78.5922 1135.87 80.7514L1142.26 93.5443L1155.05 99.9325C1157.22 101.012 1158.73 103.067 1159.11 105.453C1159.5 107.838 1158.72 110.264 1157.01 111.973L1134.46 134.521C1133.05 135.93 1131.14 136.723 1129.15 136.723H1109.71L1089.37 157.069C1087.46 158.914 1084.72 159.613 1082.16 158.911C1079.6 158.21 1077.6 156.21 1076.9 153.65C1076.2 151.091 1076.9 148.351 1078.74 146.442L1099.09 126.096ZM1114.12 109.771V121.692H1126.04L1139.01 108.719L1133.3 105.863C1131.85 105.134 1130.67 103.955 1129.94 102.503L1127.09 96.798L1114.12 109.771Z" fill="#2B6EFD"/>
        <path d="M1047.78 115.853L1047.78 115.853C1057.35 106.28 1070.33 100.903 1083.87 100.903C1087.13 100.903 1090.14 99.1639 1091.77 96.3419C1093.4 93.5198 1093.4 90.0427 1091.77 87.2206C1090.14 84.3987 1087.13 82.6593 1083.87 82.6593C1065.49 82.6593 1047.87 89.9589 1034.88 102.952C1021.88 115.945 1014.58 133.568 1014.58 151.943C1014.58 170.317 1021.88 187.94 1034.88 200.933C1047.87 213.927 1065.49 221.226 1083.87 221.226C1102.24 221.226 1119.86 213.927 1132.86 200.933C1145.85 187.941 1153.15 170.318 1153.15 151.943C1153.15 148.684 1151.41 145.672 1148.59 144.043C1145.77 142.414 1142.29 142.414 1139.47 144.043C1136.65 145.672 1134.91 148.684 1134.91 151.943C1134.91 165.479 1129.53 178.461 1119.96 188.033L1119.96 188.033C1110.39 197.605 1097.4 202.982 1083.87 202.982C1070.33 202.982 1057.35 197.605 1047.78 188.033L1047.78 188.032C1038.2 178.462 1032.83 165.479 1032.83 151.943C1032.83 138.406 1038.2 125.424 1047.78 115.853ZM1069.05 137.123L1069.05 137.123C1072.98 133.192 1078.31 130.984 1083.87 130.984C1087.13 130.984 1090.14 129.245 1091.77 126.423C1093.4 123.601 1093.4 120.123 1091.77 117.301C1090.14 114.479 1087.13 112.74 1083.87 112.74C1073.47 112.74 1063.5 116.871 1056.15 124.223C1048.79 131.575 1044.66 141.546 1044.66 151.943C1044.66 162.34 1048.79 172.312 1056.15 179.664C1063.5 187.016 1073.47 191.147 1083.87 191.147C1094.26 191.147 1104.24 187.016 1111.59 179.664C1118.94 172.312 1123.07 162.34 1123.07 151.943C1123.07 148.684 1121.33 145.673 1118.51 144.044C1115.69 142.414 1112.21 142.414 1109.39 144.044C1106.57 145.673 1104.83 148.684 1104.83 151.943C1104.83 157.502 1102.62 162.834 1098.69 166.763L1098.69 166.764C1094.76 170.695 1089.43 172.903 1083.87 172.903C1078.31 172.903 1072.98 170.695 1069.05 166.764L1069.05 166.763C1065.12 162.834 1062.91 157.502 1062.91 151.943C1062.91 146.384 1065.12 141.053 1069.05 137.123Z" fill="#FF4400" stroke="#FF4400" stroke-width="3.20291"/>
        <path d="M8.50119 36.6567H55.8298L86.2554 144.316L115.641 36.6567H148.407L175.972 144.576L206.137 36.6567H253.466L203.277 218.43H160.889L130.984 112.851L101.338 218.43H58.6903L8.50119 36.6567ZM325.497 222.331C301.053 222.331 281.809 216.61 267.766 205.167C253.897 193.725 246.963 177.516 246.963 156.539C246.963 135.908 253.117 119.612 265.426 107.65C277.908 95.6875 295.852 89.7064 319.256 89.7064C334.165 89.7064 346.908 92.5669 357.483 98.288C368.231 103.836 376.293 111.55 381.667 121.432C387.215 131.141 389.989 142.149 389.989 154.458V171.361H290.391C292.124 178.296 296.458 183.323 303.393 186.444C310.328 189.565 319.776 191.125 331.738 191.125C339.886 191.125 348.208 190.431 356.703 189.045C365.371 187.658 372.826 185.751 379.067 183.323V213.489C372.652 216.089 364.591 218.17 354.882 219.73C345.347 221.464 335.552 222.331 325.497 222.331ZM346.821 142.756C346.127 135.995 343.354 130.707 338.499 126.893C333.645 123.079 326.971 121.172 318.476 121.172C310.154 121.172 303.566 123.166 298.712 127.153C293.858 130.967 291.084 136.168 290.391 142.756H346.821ZM496.507 222.331C478.65 222.331 463.914 216.87 452.299 205.948V218.43H408.091V26.2548H453.859V103.749C458.886 99.4148 465.128 96.0342 472.582 93.6071C480.21 91.0066 488.185 89.7064 496.507 89.7064C509.682 89.7064 521.211 92.4802 531.093 98.0279C541.148 103.576 548.95 111.464 554.497 121.692C560.045 131.747 562.819 143.276 562.819 156.279C562.819 169.454 560.045 181.07 554.497 191.125C548.95 201.007 541.148 208.721 531.093 214.269C521.038 219.643 509.509 222.331 496.507 222.331ZM484.544 186.964C493.906 186.964 501.448 184.277 507.169 178.903C512.89 173.355 515.75 165.814 515.75 156.279C515.75 146.743 512.89 139.202 507.169 133.654C501.448 128.107 493.906 125.333 484.544 125.333C477.61 125.333 471.369 127.153 465.821 130.794C460.273 134.261 456.286 139.029 453.859 145.097V167.201C456.286 173.268 460.273 178.123 465.821 181.763C471.369 185.231 477.61 186.964 484.544 186.964ZM635.642 222.331C624.2 222.331 613.191 221.377 602.616 219.47C592.214 217.563 583.286 214.703 575.831 210.889V174.482C593.341 182.457 611.024 186.444 628.881 186.444C652.979 186.444 665.028 179.249 665.028 164.86C665.028 157.579 662.08 152.378 656.186 149.257C650.292 145.963 641.103 144.316 628.621 144.316H603.396V109.21H627.581C637.809 109.21 645.697 107.476 651.245 104.009C656.966 100.542 659.827 95.4275 659.827 88.6662C659.827 82.2517 657.313 77.3108 652.285 73.8435C647.258 70.3762 640.15 68.6426 630.961 68.6426C612.065 68.6426 594.901 73.4968 579.472 83.2052V46.0184C587.273 41.8577 596.202 38.6504 606.257 36.3967C616.312 33.9696 626.714 32.756 637.463 32.756C661.214 32.756 678.723 37.5235 689.992 47.0586C701.261 56.4203 706.895 69.6828 706.895 86.8459C706.895 94.6473 704.988 102.015 701.174 108.95C697.533 115.885 692.072 121.779 684.791 126.633C702.994 134.608 712.096 148.13 712.096 167.201C712.096 184.71 706.115 198.32 694.153 208.028C682.191 217.563 662.687 222.331 635.642 222.331ZM912.609 222.331C892.845 222.331 875.422 218.517 860.339 210.889C845.43 203.26 833.901 192.338 825.753 178.123C817.605 163.733 813.531 146.917 813.531 127.673C813.531 108.43 817.605 91.7001 825.753 77.4842C833.901 63.0949 845.43 52.0862 860.339 44.4581C875.422 36.6567 892.845 32.756 912.609 32.756C925.785 32.756 937.4 34.0562 947.455 36.6567C957.684 39.0838 967.132 43.0712 975.801 48.6189V92.3069C968.172 86.2391 959.504 81.905 949.796 79.3045C940.261 76.5307 929.252 75.1438 916.77 75.1438C906.021 75.1438 896.399 77.3108 887.904 81.6449C879.583 85.8057 872.995 91.8735 868.141 99.8483C863.287 107.823 860.86 117.098 860.86 127.673C860.86 144.143 865.627 157.145 875.162 166.68C884.871 176.216 897.96 180.983 914.429 180.983C923.618 180.983 931.332 179.423 937.574 176.302V147.177H909.748V114.931H981.262V205.428C962.711 216.696 939.827 222.331 912.609 222.331Z" fill="black"/>
        <path d="M1236.56 214.901C1220.95 214.901 1208.3 211.173 1198.59 203.719C1189.05 196.091 1184.29 185.515 1184.29 171.993C1184.29 157.95 1188.88 147.202 1198.07 139.747C1207.43 132.119 1220.78 128.305 1238.12 128.305C1244.88 128.305 1251.64 129.085 1258.4 130.645C1265.16 132.032 1270.97 133.939 1275.82 136.366V133.766C1275.82 120.417 1264.9 113.742 1243.06 113.742C1227.8 113.742 1213.85 116.689 1201.19 122.584V91.1181C1206.74 88.5176 1214.02 86.4373 1223.03 84.877C1232.05 83.1433 1241.41 82.2765 1251.12 82.2765C1274.35 82.2765 1291.86 86.9574 1303.65 96.3191C1315.61 105.507 1321.59 118.423 1321.59 135.066V211H1278.68V200.338C1274 204.846 1268.11 208.4 1261 211C1253.89 213.6 1245.74 214.901 1236.56 214.901ZM1250.08 186.816C1255.45 186.816 1260.48 185.775 1265.16 183.695C1269.84 181.441 1273.4 178.581 1275.82 175.113V164.191C1268.37 159.164 1259.87 156.65 1250.34 156.65C1244.27 156.65 1239.59 157.95 1236.3 160.551C1233 163.151 1231.36 166.965 1231.36 171.993C1231.36 176.674 1232.92 180.314 1236.04 182.915C1239.33 185.515 1244.01 186.816 1250.08 186.816ZM1343.64 18.8249H1389.41V211H1343.64V18.8249ZM1466.54 214.901C1456.49 214.901 1446 213.861 1435.08 211.78C1424.15 209.873 1415.49 207.099 1409.07 203.459V169.913C1416.18 174.073 1424.67 177.541 1434.56 180.314C1444.61 182.915 1453.8 184.215 1462.12 184.215C1468.19 184.215 1472.61 183.782 1475.38 182.915C1478.16 182.048 1479.54 180.314 1479.54 177.714C1479.54 175.634 1478.59 173.987 1476.68 172.773C1474.95 171.386 1471.66 169.999 1466.8 168.612C1462.12 167.052 1456.66 165.405 1450.42 163.671C1439.84 160.551 1431.52 157.344 1425.45 154.05C1419.39 150.756 1414.88 146.595 1411.93 141.567C1408.99 136.54 1407.51 130.212 1407.51 122.584C1407.51 109.061 1412.8 99.0062 1423.37 92.4184C1434.12 85.6571 1448.77 82.2765 1467.32 82.2765C1476.34 82.2765 1485.79 83.23 1495.67 85.137C1505.72 87.044 1513.26 89.5578 1518.29 92.6784V125.704C1513.09 122.237 1506.16 119.377 1497.49 117.123C1488.99 114.869 1481.02 113.742 1473.56 113.742C1467.67 113.742 1463.07 114.349 1459.78 115.563C1456.49 116.603 1454.84 118.51 1454.84 121.284C1454.84 123.884 1456.49 125.878 1459.78 127.265C1463.07 128.652 1468.97 130.385 1477.46 132.466C1483.01 133.853 1485.35 134.459 1484.49 134.286C1495.58 137.233 1504.16 140.527 1510.23 144.168C1516.3 147.808 1520.55 152.143 1522.97 157.17C1525.57 162.024 1526.87 168.266 1526.87 175.894C1526.87 187.856 1521.67 197.391 1511.27 204.499C1501.04 211.433 1486.13 214.901 1466.54 214.901Z" fill="black"/>
    </g>
    <defs>
        <clipPath id="clip0_5_6">
            <rect width="1536" height="256" fill="white"/>
        </clipPath>
    </defs>
</svg>
